<?xml version="1.0" encoding="utf-8"?>
<!-- Generator: Adobe Illustrator 19.0.1, SVG Export Plug-In . SVG Version: 6.00 Build 0)  -->
<svg version="1.1" xmlns="http://www.w3.org/2000/svg" xmlns:xlink="http://www.w3.org/1999/xlink" x="0px" y="0px"
	 viewBox="0 0 500 500" style="enable-background:new 0 0 500 500;" xml:space="preserve">
<style type="text/css">
	.st0{opacity:0;}
	.st1{fill:none;stroke:#231F20;stroke-width:5.0383;stroke-miterlimit:10;}
	.st2{fill:#FFFFFF;stroke:#FFFFFF;stroke-width:2.5192;stroke-miterlimit:10;}
	.st3{fill:#FFFFFF;}
	.st4{fill:#FFFFFF;stroke:#FFFFFF;stroke-width:2.5482;stroke-miterlimit:10;}
</style>
<g id="Layer_1">
	<g id="Layer_3">
		<rect y="0" width="500" height="500"/>
	</g>
</g>
<g id="Layer_10">
	<g>
		<g class="st0">
			<rect x="-0.3" y="-0.7" class="st1" width="500.7" height="500.7"/>
		</g>
		<g>
			<path class="st2" d="M248.5,139.1l-0.3,0.3c0.9,0,1.6-0.1,2.1-0.3H248.5z"/>
			<g>
				<path class="st3" d="M83.7,151.9c0,3.6,2.9,6.5,6.5,6.5h140.4l12.1-13H90.2C86.6,145.4,83.7,148.3,83.7,151.9z"/>
				<path class="st2" d="M389.8,139.1H250.3c-0.5,0.2-1.1,0.3-2.1,0.3l-16.5,17.7h158.1c5,0,9-4.1,9-9
					C398.8,143.2,394.7,139.1,389.8,139.1z"/>
			</g>
		</g>
		<g>
			<path class="st3" d="M74.3,180.4c-3.6,0-6.5,2.9-6.5,6.5c0,3.6,2.9,6.5,6.5,6.5h125.8l0.3-0.3V192h1l10.8-11.6H74.3z"/>
			<path class="st2" d="M317.7,174.1h-97.4h-2.1l-1.4,1.5l-15.4,16.5h116.3c5,0,9-4.1,9-9C326.7,178.2,322.7,174.1,317.7,174.1z"/>
		</g>
		<g>
			<path class="st3" d="M84.3,222c0,3.6,3.4,6.5,7.6,6.5h80.9l11.4-13H91.8C87.7,215.5,84.3,218.4,84.3,222z"/>
			<path class="st4" d="M278.9,209.3h-88.8h-1.1l-2.8,3.2l-13.6,14.8h106.5c5.4,0,9.8-4.9,8.9-10.4
				C287.4,212.4,283.4,209.3,278.9,209.3z"/>
		</g>
		<path class="st3" d="M247.7,248.5H126.3c-3.6,0-6.5,2.9-6.5,6.5s2.9,6.5,6.5,6.5h121.3c3.6,0,6.5-2.9,6.5-6.5
			S251.2,248.5,247.7,248.5z"/>
		<path class="st3" d="M256.2,283.5h-82.4c-3.6,0-6.5,2.9-6.5,6.5s2.9,6.5,6.5,6.5h82.4c3.6,0,6.5-2.9,6.5-6.5
			S259.8,283.5,256.2,283.5z"/>
		<path class="st3" d="M204,318.5H150c-3.6,0-6.5,2.9-6.5,6.5s2.9,6.5,6.5,6.5H204c3.6,0,6.5-2.9,6.5-6.5S207.6,318.5,204,318.5z"/>
		<path class="st3" d="M152.2,353.5h-34.5c-3.6,0-6.5,2.9-6.5,6.5s2.9,6.5,6.5,6.5h34.5c3.6,0,6.5-2.9,6.5-6.5
			S155.8,353.5,152.2,353.5z"/>
	</g>
</g>
<g id="Layer_9">
</g>
<g id="Layer_8">
</g>
<g id="Layer_7">
</g>
<g id="Layer_6">
</g>
<g id="Layer_5">
</g>
<g id="Layer_4">
</g>
</svg>
