<?xml version="1.0" encoding="utf-8"?>
<!-- Generator: Adobe Illustrator 19.1.1, SVG Export Plug-In . SVG Version: 6.00 Build 0)  -->
<svg version="1.1" xmlns="http://www.w3.org/2000/svg" xmlns:xlink="http://www.w3.org/1999/xlink" x="0px" y="0px"
	 viewBox="0 0 500 500" style="enable-background:new 0 0 500 500;" xml:space="preserve">
<style type="text/css">
	.st0{stroke:#000000;stroke-miterlimit:10;}
	.st1{fill:#FFFFFF;stroke:#000000;stroke-miterlimit:10;}
</style>
<g id="Layer_1">
	<g id="Layer_3">
		<rect class="st0" width="500" height="500"/>
	</g>
</g>
<g id="Layer_10">
	<path class="st1" d="M389,157H89.9c-4.9,0-9-4-9-9v0c0-4.9,4.1-9,9-9H389c5,0,9,4.1,9,9v0C398,153,394,157,389,157z"/>
</g>
<g id="Layer_9">
	<path class="st1" d="M312.7,191H69.9c-4.9,0-9-4-9-9v0c0-4.9,4.1-9,9-9h242.9c4.9,0,9,4.1,9,9v0C321.7,187,317.7,191,312.7,191z"/>
</g>
<g id="Layer_8">
	<path class="st1" d="M274.3,225H96c-5,0-9-4-9-9v0c0-4.9,4-9,9-9h178.3c5,0,9,4.1,9,9v0C283.3,221,279.2,225,274.3,225z"/>
</g>
<g id="Layer_7">
	<path class="st1" d="M246.7,259H125.6c-4.9,0-9-4.1-9-9v0c0-4.9,4.1-9,9-9h121.1c5,0,9,4.1,9,9v0C255.7,255,251.7,259,246.7,259z"
		/>
</g>
<g id="Layer_6">
	<path class="st1" d="M253.3,294.1H171c-4.9,0-9-4.1-9-9v0c0-4.9,4.1-9,9-9h82.3c4.9,0,9,4.1,9,9v0
		C262.3,290.1,258.2,294.1,253.3,294.1z"/>
</g>
<g id="Layer_5">
	<path class="st1" d="M204.1,327h-54c-4.9,0-9-4.1-9-9v0c0-4.9,4.1-9,9-9h54c4.9,0,9,4.1,9,9v0C213.1,323,209.1,327,204.1,327z"/>
</g>
<g id="Layer_4">
	<path class="st1" d="M155,357h-34.4c-4.9,0-9-4.1-9-9v0c0-4.9,4.1-9,9-9H155c4.9,0,9,4.1,9,9v0C164,353,159.9,357,155,357z"/>
</g>
</svg>
